<?xml version="1.0" encoding="UTF-8" standalone="no"?>
<!DOCTYPE svg PUBLIC "-//W3C//DTD SVG 1.1//EN"
 "http://www.w3.org/Graphics/SVG/1.1/DTD/svg11.dtd">
<!-- Generated by graphviz version 9.0.0 (20230911.1827)
 -->
<!-- Title: G Pages: 1 -->
<svg width="791pt" height="750pt"
 viewBox="0.00 0.00 790.88 749.75" xmlns="http://www.w3.org/2000/svg" xmlns:xlink="http://www.w3.org/1999/xlink">
<g id="graph0" class="graph" transform="scale(1 1) rotate(0) translate(4 745.75)">
<title>G</title>
<polygon fill="white" stroke="none" points="-4,4 -4,-745.75 786.88,-745.75 786.88,4 -4,4"/>
<!-- A -->
<g id="node1" class="node">
<title>A</title>
<polygon fill="lightblue" stroke="lightblue" points="351.5,-741.75 211.75,-741.75 211.75,-705.75 351.5,-705.75 351.5,-741.75"/>
<text text-anchor="middle" x="281.62" y="-719.08" font-family="Times,serif" font-size="14.00">Parse Server List</text>
</g>
<!-- B -->
<g id="node2" class="node">
<title>B</title>
<polygon fill="lightblue" stroke="lightblue" points="365.38,-668.75 197.88,-668.75 197.88,-632.75 365.38,-632.75 365.38,-668.75"/>
<text text-anchor="middle" x="281.62" y="-646.08" font-family="Times,serif" font-size="14.00">Sort Servers by Rack</text>
</g>
<!-- A&#45;&gt;B -->
<g id="edge1" class="edge">
<title>A&#45;&gt;B</title>
<path fill="none" stroke="black" d="M281.62,-705.56C281.62,-697.98 281.62,-688.85 281.62,-680.29"/>
<polygon fill="black" stroke="black" points="285.13,-680.29 281.63,-670.29 278.13,-680.29 285.13,-680.29"/>
</g>
<!-- C -->
<g id="node3" class="node">
<title>C</title>
<polygon fill="lightblue" stroke="lightblue" points="361.25,-595.75 202,-595.75 202,-559.75 361.25,-559.75 361.25,-595.75"/>
<text text-anchor="middle" x="281.62" y="-573.08" font-family="Times,serif" font-size="14.00">Initialize Start Time</text>
</g>
<!-- B&#45;&gt;C -->
<g id="edge2" class="edge">
<title>B&#45;&gt;C</title>
<path fill="none" stroke="black" d="M281.62,-632.56C281.62,-624.98 281.62,-615.85 281.62,-607.29"/>
<polygon fill="black" stroke="black" points="285.13,-607.29 281.63,-597.29 278.13,-607.29 285.13,-607.29"/>
</g>
<!-- D -->
<g id="node4" class="node">
<title>D</title>
<polygon fill="lightblue" stroke="lightblue" points="327.5,-522.75 235.75,-522.75 235.75,-486.75 327.5,-486.75 327.5,-522.75"/>
<text text-anchor="middle" x="281.62" y="-500.07" font-family="Times,serif" font-size="14.00">Check Day</text>
</g>
<!-- C&#45;&gt;D -->
<g id="edge3" class="edge">
<title>C&#45;&gt;D</title>
<path fill="none" stroke="black" d="M281.62,-559.56C281.62,-551.98 281.62,-542.85 281.62,-534.29"/>
<polygon fill="black" stroke="black" points="285.13,-534.29 281.63,-524.29 278.13,-534.29 285.13,-534.29"/>
</g>
<!-- E -->
<g id="node5" class="node">
<title>E</title>
<polygon fill="lightblue" stroke="lightblue" points="306.62,-433.5 176.62,-433.5 176.62,-397.5 306.62,-397.5 306.62,-433.5"/>
<text text-anchor="middle" x="241.62" y="-410.82" font-family="Times,serif" font-size="14.00">Skip to Tuesday</text>
</g>
<!-- D&#45;&gt;E -->
<g id="edge4" class="edge">
<title>D&#45;&gt;E</title>
<path fill="none" stroke="black" d="M273.72,-486.51C268.13,-474.32 260.53,-457.73 254.12,-443.76"/>
<polygon fill="black" stroke="black" points="257.49,-442.71 250.14,-435.08 251.13,-445.63 257.49,-442.71"/>
<text text-anchor="middle" x="294.12" y="-455.45" font-family="Times,serif" font-size="14.00">Monday</text>
</g>
<!-- F -->
<g id="node6" class="node">
<title>F</title>
<polygon fill="lightblue" stroke="lightblue" points="512.5,-433.5 324.75,-433.5 324.75,-397.5 512.5,-397.5 512.5,-433.5"/>
<text text-anchor="middle" x="418.62" y="-410.82" font-family="Times,serif" font-size="14.00">Check Patching Window</text>
</g>
<!-- D&#45;&gt;F -->
<g id="edge5" class="edge">
<title>D&#45;&gt;F</title>
<path fill="none" stroke="black" d="M309.02,-486.3C329.93,-472.99 358.94,-454.51 381.87,-439.91"/>
<polygon fill="black" stroke="black" points="383.45,-443.05 390,-434.73 379.69,-437.15 383.45,-443.05"/>
<text text-anchor="middle" x="403.12" y="-455.45" font-family="Times,serif" font-size="14.00">Other Days</text>
</g>
<!-- G -->
<g id="node7" class="node">
<title>G</title>
<polygon fill="lightblue" stroke="lightblue" points="261.25,-344.25 0,-344.25 0,-308.25 261.25,-308.25 261.25,-344.25"/>
<text text-anchor="middle" x="130.62" y="-321.57" font-family="Times,serif" font-size="14.00">Schedule Patching (0 AM to 4 AM)</text>
</g>
<!-- F&#45;&gt;G -->
<g id="edge6" class="edge">
<title>F&#45;&gt;G</title>
<path fill="none" stroke="black" d="M361.04,-397.05C314.34,-382.91 248.4,-362.93 199.02,-347.97"/>
<polygon fill="black" stroke="black" points="200.15,-344.66 189.56,-345.11 198.12,-351.35 200.15,-344.66"/>
<text text-anchor="middle" x="349.75" y="-366.2" font-family="Times,serif" font-size="14.00">0 AM to 4 AM</text>
</g>
<!-- H -->
<g id="node8" class="node">
<title>H</title>
<polygon fill="lightblue" stroke="lightblue" points="558.25,-344.25 279,-344.25 279,-308.25 558.25,-308.25 558.25,-344.25"/>
<text text-anchor="middle" x="418.62" y="-321.57" font-family="Times,serif" font-size="14.00">Schedule Patching (18 PM to 22 PM)</text>
</g>
<!-- F&#45;&gt;H -->
<g id="edge7" class="edge">
<title>F&#45;&gt;H</title>
<path fill="none" stroke="black" d="M418.62,-397.26C418.62,-385.43 418.62,-369.45 418.62,-355.75"/>
<polygon fill="black" stroke="black" points="422.13,-355.97 418.63,-345.97 415.13,-355.97 422.13,-355.97"/>
<text text-anchor="middle" x="476.75" y="-366.2" font-family="Times,serif" font-size="14.00">18 PM to 22 PM</text>
</g>
<!-- I -->
<g id="node9" class="node">
<title>I</title>
<polygon fill="lightblue" stroke="lightblue" points="782.88,-344.25 576.38,-344.25 576.38,-308.25 782.88,-308.25 782.88,-344.25"/>
<text text-anchor="middle" x="679.62" y="-321.57" font-family="Times,serif" font-size="14.00">Move to Next Window/Day</text>
</g>
<!-- F&#45;&gt;I -->
<g id="edge8" class="edge">
<title>F&#45;&gt;I</title>
<path fill="none" stroke="black" d="M481.48,-397.08C499.97,-391.71 520.18,-385.6 538.62,-379.5 567.14,-370.07 598.51,-358.56 624.4,-348.75"/>
<polygon fill="black" stroke="black" points="625.63,-352.03 633.73,-345.2 623.14,-345.49 625.63,-352.03"/>
<text text-anchor="middle" x="646.88" y="-366.2" font-family="Times,serif" font-size="14.00">Outside Windows</text>
</g>
<!-- J -->
<g id="node10" class="node">
<title>J</title>
<polygon fill="lightblue" stroke="lightblue" points="368.25,-271.25 179,-271.25 179,-235.25 368.25,-235.25 368.25,-271.25"/>
<text text-anchor="middle" x="273.62" y="-248.57" font-family="Times,serif" font-size="14.00">Same Rack as Previous?</text>
</g>
<!-- G&#45;&gt;J -->
<g id="edge9" class="edge">
<title>G&#45;&gt;J</title>
<path fill="none" stroke="black" d="M165.61,-307.88C184.48,-298.51 207.99,-286.84 228.25,-276.78"/>
<polygon fill="black" stroke="black" points="229.75,-279.94 237.15,-272.36 226.64,-273.67 229.75,-279.94"/>
</g>
<!-- H&#45;&gt;J -->
<g id="edge10" class="edge">
<title>H&#45;&gt;J</title>
<path fill="none" stroke="black" d="M383.15,-307.88C363.93,-298.47 339.96,-286.73 319.35,-276.64"/>
<polygon fill="black" stroke="black" points="321.11,-273.61 310.59,-272.35 318.03,-279.89 321.11,-273.61"/>
</g>
<!-- K -->
<g id="node11" class="node">
<title>K</title>
<polygon fill="lightblue" stroke="lightblue" points="307.88,-182 101.38,-182 101.38,-146 307.88,-146 307.88,-182"/>
<text text-anchor="middle" x="204.62" y="-159.32" font-family="Times,serif" font-size="14.00">Move to Next Window/Day</text>
</g>
<!-- J&#45;&gt;K -->
<g id="edge11" class="edge">
<title>J&#45;&gt;K</title>
<path fill="none" stroke="black" d="M259.99,-235.01C250.07,-222.46 236.46,-205.25 225.21,-191.03"/>
<polygon fill="black" stroke="black" points="228.12,-189.06 219.17,-183.39 222.63,-193.4 228.12,-189.06"/>
<text text-anchor="middle" x="257.62" y="-203.95" font-family="Times,serif" font-size="14.00">Yes</text>
</g>
<!-- L -->
<g id="node12" class="node">
<title>L</title>
<polygon fill="lightblue" stroke="lightblue" points="358.5,-109 188.75,-109 188.75,-73 358.5,-73 358.5,-109"/>
<text text-anchor="middle" x="273.62" y="-86.33" font-family="Times,serif" font-size="14.00">Assign Patching Time</text>
</g>
<!-- J&#45;&gt;L -->
<g id="edge12" class="edge">
<title>J&#45;&gt;L</title>
<path fill="none" stroke="black" d="M288.99,-234.78C305.43,-213.88 327.72,-177.75 316.62,-146 313.02,-135.7 306.54,-125.89 299.69,-117.53"/>
<polygon fill="black" stroke="black" points="302.47,-115.39 293.22,-110.21 297.22,-120.02 302.47,-115.39"/>
<text text-anchor="middle" x="329.75" y="-159.32" font-family="Times,serif" font-size="14.00">No</text>
</g>
<!-- K&#45;&gt;L -->
<g id="edge13" class="edge">
<title>K&#45;&gt;L</title>
<path fill="none" stroke="black" d="M221.33,-145.81C229.72,-137.18 240.04,-126.56 249.3,-117.03"/>
<polygon fill="black" stroke="black" points="251.56,-119.72 256.02,-110.11 246.54,-114.85 251.56,-119.72"/>
</g>
<!-- M -->
<g id="node13" class="node">
<title>M</title>
<polygon fill="lightblue" stroke="lightblue" points="367.88,-36 179.38,-36 179.38,0 367.88,0 367.88,-36"/>
<text text-anchor="middle" x="273.62" y="-13.32" font-family="Times,serif" font-size="14.00">Print Patching Schedule</text>
</g>
<!-- L&#45;&gt;M -->
<g id="edge14" class="edge">
<title>L&#45;&gt;M</title>
<path fill="none" stroke="black" d="M273.62,-72.81C273.62,-65.23 273.62,-56.1 273.62,-47.54"/>
<polygon fill="black" stroke="black" points="277.13,-47.54 273.63,-37.54 270.13,-47.54 277.13,-47.54"/>
</g>
</g>
</svg>
