<?xml version="1.0" encoding="UTF-8" standalone="no"?>
<!DOCTYPE svg PUBLIC "-//W3C//DTD SVG 1.1//EN"
 "http://www.w3.org/Graphics/SVG/1.1/DTD/svg11.dtd">
<!-- Generated by graphviz version 9.0.0 (20230911.1827)
 -->
<!-- Title: G Pages: 1 -->
<svg width="552pt" height="287pt"
 viewBox="0.00 0.00 552.00 286.50" xmlns="http://www.w3.org/2000/svg" xmlns:xlink="http://www.w3.org/1999/xlink">
<g id="graph0" class="graph" transform="scale(1 1) rotate(0) translate(4 282.5)">
<title>G</title>
<polygon fill="white" stroke="none" points="-4,4 -4,-282.5 548,-282.5 548,4 -4,4"/>
<g id="clust1" class="cluster">
<title>cluster_Weekdays</title>
<polygon fill="none" stroke="blue" points="8,-8 8,-270.5 286,-270.5 286,-8 8,-8"/>
<text text-anchor="middle" x="147" y="-253.2" font-family="Times,serif" font-size="14.00">Weekdays</text>
</g>
<g id="clust2" class="cluster">
<title>cluster_Rack1</title>
<polygon fill="none" stroke="blue" points="196,-16 196,-237.25 278,-237.25 278,-16 196,-16"/>
<text text-anchor="middle" x="237" y="-219.95" font-family="Times,serif" font-size="14.00">Rack1</text>
</g>
<g id="clust3" class="cluster">
<title>cluster_Rack2</title>
<polygon fill="none" stroke="blue" points="106,-16 106,-237.25 188,-237.25 188,-16 106,-16"/>
<text text-anchor="middle" x="147" y="-219.95" font-family="Times,serif" font-size="14.00">Rack2</text>
</g>
<g id="clust4" class="cluster">
<title>cluster_Rack3</title>
<polygon fill="none" stroke="blue" points="16,-16 16,-237.25 98,-237.25 98,-16 16,-16"/>
<text text-anchor="middle" x="57" y="-219.95" font-family="Times,serif" font-size="14.00">Rack3</text>
</g>
<g id="clust5" class="cluster">
<title>cluster_Weekends</title>
<polygon fill="none" stroke="red" points="294,-152 294,-270.5 536,-270.5 536,-152 294,-152"/>
<text text-anchor="middle" x="415" y="-253.2" font-family="Times,serif" font-size="14.00">Weekends</text>
</g>
<g id="clust6" class="cluster">
<title>cluster_Rack1W</title>
<polygon fill="none" stroke="red" points="458,-160 458,-237.25 528,-237.25 528,-160 458,-160"/>
<text text-anchor="middle" x="493" y="-219.95" font-family="Times,serif" font-size="14.00">Rack1</text>
</g>
<g id="clust7" class="cluster">
<title>cluster_Rack2W</title>
<polygon fill="none" stroke="red" points="380,-160 380,-237.25 450,-237.25 450,-160 380,-160"/>
<text text-anchor="middle" x="415" y="-219.95" font-family="Times,serif" font-size="14.00">Rack2</text>
</g>
<g id="clust8" class="cluster">
<title>cluster_Rack3W</title>
<polygon fill="none" stroke="red" points="302,-160 302,-237.25 372,-237.25 372,-160 302,-160"/>
<text text-anchor="middle" x="337" y="-219.95" font-family="Times,serif" font-size="14.00">Rack3</text>
</g>
<!-- W1 -->
<g id="node1" class="node">
<title>W1</title>
<polygon fill="yellow" stroke="yellow" points="266,-204 208,-204 208,-168 266,-168 266,-204"/>
<text text-anchor="middle" x="237" y="-181.32" font-family="Times,serif" font-size="14.00">Warm</text>
</g>
<!-- C1 -->
<g id="node2" class="node">
<title>C1</title>
<polygon fill="lightblue" stroke="lightblue" points="264,-132 210,-132 210,-96 264,-96 264,-132"/>
<text text-anchor="middle" x="237" y="-109.33" font-family="Times,serif" font-size="14.00">Cold</text>
</g>
<!-- W1&#45;&gt;C1 -->
<g id="edge1" class="edge">
<title>W1&#45;&gt;C1</title>
<path fill="none" stroke="black" d="M237,-167.7C237,-160.41 237,-151.73 237,-143.54"/>
<polygon fill="black" stroke="black" points="240.5,-143.62 237,-133.62 233.5,-143.62 240.5,-143.62"/>
</g>
<!-- F1 -->
<g id="node3" class="node">
<title>F1</title>
<polygon fill="lightgrey" stroke="lightgrey" points="269.75,-60 204.25,-60 204.25,-24 269.75,-24 269.75,-60"/>
<text text-anchor="middle" x="237" y="-37.33" font-family="Times,serif" font-size="14.00">Frozen</text>
</g>
<!-- C1&#45;&gt;F1 -->
<g id="edge2" class="edge">
<title>C1&#45;&gt;F1</title>
<path fill="none" stroke="black" d="M237,-95.7C237,-88.41 237,-79.73 237,-71.54"/>
<polygon fill="black" stroke="black" points="240.5,-71.62 237,-61.62 233.5,-71.62 240.5,-71.62"/>
</g>
<!-- W2 -->
<g id="node4" class="node">
<title>W2</title>
<polygon fill="yellow" stroke="yellow" points="176,-204 118,-204 118,-168 176,-168 176,-204"/>
<text text-anchor="middle" x="147" y="-181.32" font-family="Times,serif" font-size="14.00">Warm</text>
</g>
<!-- C2 -->
<g id="node5" class="node">
<title>C2</title>
<polygon fill="lightblue" stroke="lightblue" points="174,-132 120,-132 120,-96 174,-96 174,-132"/>
<text text-anchor="middle" x="147" y="-109.33" font-family="Times,serif" font-size="14.00">Cold</text>
</g>
<!-- W2&#45;&gt;C2 -->
<g id="edge3" class="edge">
<title>W2&#45;&gt;C2</title>
<path fill="none" stroke="black" d="M147,-167.7C147,-160.41 147,-151.73 147,-143.54"/>
<polygon fill="black" stroke="black" points="150.5,-143.62 147,-133.62 143.5,-143.62 150.5,-143.62"/>
</g>
<!-- F2 -->
<g id="node6" class="node">
<title>F2</title>
<polygon fill="lightgrey" stroke="lightgrey" points="179.75,-60 114.25,-60 114.25,-24 179.75,-24 179.75,-60"/>
<text text-anchor="middle" x="147" y="-37.33" font-family="Times,serif" font-size="14.00">Frozen</text>
</g>
<!-- C2&#45;&gt;F2 -->
<g id="edge4" class="edge">
<title>C2&#45;&gt;F2</title>
<path fill="none" stroke="black" d="M147,-95.7C147,-88.41 147,-79.73 147,-71.54"/>
<polygon fill="black" stroke="black" points="150.5,-71.62 147,-61.62 143.5,-71.62 150.5,-71.62"/>
</g>
<!-- W3 -->
<g id="node7" class="node">
<title>W3</title>
<polygon fill="yellow" stroke="yellow" points="86,-204 28,-204 28,-168 86,-168 86,-204"/>
<text text-anchor="middle" x="57" y="-181.32" font-family="Times,serif" font-size="14.00">Warm</text>
</g>
<!-- C3 -->
<g id="node8" class="node">
<title>C3</title>
<polygon fill="lightblue" stroke="lightblue" points="84,-132 30,-132 30,-96 84,-96 84,-132"/>
<text text-anchor="middle" x="57" y="-109.33" font-family="Times,serif" font-size="14.00">Cold</text>
</g>
<!-- W3&#45;&gt;C3 -->
<g id="edge5" class="edge">
<title>W3&#45;&gt;C3</title>
<path fill="none" stroke="black" d="M57,-167.7C57,-160.41 57,-151.73 57,-143.54"/>
<polygon fill="black" stroke="black" points="60.5,-143.62 57,-133.62 53.5,-143.62 60.5,-143.62"/>
</g>
<!-- F3 -->
<g id="node9" class="node">
<title>F3</title>
<polygon fill="lightgrey" stroke="lightgrey" points="89.75,-60 24.25,-60 24.25,-24 89.75,-24 89.75,-60"/>
<text text-anchor="middle" x="57" y="-37.33" font-family="Times,serif" font-size="14.00">Frozen</text>
</g>
<!-- C3&#45;&gt;F3 -->
<g id="edge6" class="edge">
<title>C3&#45;&gt;F3</title>
<path fill="none" stroke="black" d="M57,-95.7C57,-88.41 57,-79.73 57,-71.54"/>
<polygon fill="black" stroke="black" points="60.5,-71.62 57,-61.62 53.5,-71.62 60.5,-71.62"/>
</g>
<!-- H1 -->
<g id="node10" class="node">
<title>H1</title>
<polygon fill="red" stroke="red" points="520,-204 466,-204 466,-168 520,-168 520,-204"/>
<text text-anchor="middle" x="493" y="-181.32" font-family="Times,serif" font-size="14.00">Hot</text>
</g>
<!-- H2 -->
<g id="node11" class="node">
<title>H2</title>
<polygon fill="red" stroke="red" points="442,-204 388,-204 388,-168 442,-168 442,-204"/>
<text text-anchor="middle" x="415" y="-181.32" font-family="Times,serif" font-size="14.00">Hot</text>
</g>
<!-- H3 -->
<g id="node12" class="node">
<title>H3</title>
<polygon fill="red" stroke="red" points="364,-204 310,-204 310,-168 364,-168 364,-204"/>
<text text-anchor="middle" x="337" y="-181.32" font-family="Times,serif" font-size="14.00">Hot</text>
</g>
</g>
</svg>
