<?xml version="1.0" encoding="UTF-8" standalone="no"?>
<!DOCTYPE svg PUBLIC "-//W3C//DTD SVG 1.1//EN"
 "http://www.w3.org/Graphics/SVG/1.1/DTD/svg11.dtd">
<!-- Generated by graphviz version 9.0.0 (20230911.1827)
 -->
<!-- Title: G Pages: 1 -->
<svg width="552pt" height="359pt"
 viewBox="0.00 0.00 552.00 358.50" xmlns="http://www.w3.org/2000/svg" xmlns:xlink="http://www.w3.org/1999/xlink">
<g id="graph0" class="graph" transform="scale(1 1) rotate(0) translate(4 354.5)">
<title>G</title>
<polygon fill="white" stroke="none" points="-4,4 -4,-354.5 548,-354.5 548,4 -4,4"/>
<g id="clust1" class="cluster">
<title>cluster_Weekdays</title>
<polygon fill="none" stroke="blue" points="8,-8 8,-342.5 286,-342.5 286,-8 8,-8"/>
<text text-anchor="middle" x="147" y="-325.2" font-family="Times,serif" font-size="14.00">Weekdays</text>
</g>
<g id="clust2" class="cluster">
<title>cluster_Rack1</title>
<polygon fill="none" stroke="blue" points="196,-16 196,-309.25 278,-309.25 278,-16 196,-16"/>
<text text-anchor="middle" x="237" y="-291.95" font-family="Times,serif" font-size="14.00">Rack1</text>
</g>
<g id="clust3" class="cluster">
<title>cluster_Rack2</title>
<polygon fill="none" stroke="blue" points="106,-16 106,-309.25 188,-309.25 188,-16 106,-16"/>
<text text-anchor="middle" x="147" y="-291.95" font-family="Times,serif" font-size="14.00">Rack2</text>
</g>
<g id="clust4" class="cluster">
<title>cluster_Rack3</title>
<polygon fill="none" stroke="blue" points="16,-16 16,-309.25 98,-309.25 98,-16 16,-16"/>
<text text-anchor="middle" x="57" y="-291.95" font-family="Times,serif" font-size="14.00">Rack3</text>
</g>
<g id="clust5" class="cluster">
<title>cluster_Weekends</title>
<polygon fill="none" stroke="red" points="294,-224 294,-342.5 536,-342.5 536,-224 294,-224"/>
<text text-anchor="middle" x="415" y="-325.2" font-family="Times,serif" font-size="14.00">Weekends</text>
</g>
<g id="clust6" class="cluster">
<title>cluster_Rack1W</title>
<polygon fill="none" stroke="red" points="458,-232 458,-309.25 528,-309.25 528,-232 458,-232"/>
<text text-anchor="middle" x="493" y="-291.95" font-family="Times,serif" font-size="14.00">Rack1</text>
</g>
<g id="clust7" class="cluster">
<title>cluster_Rack2W</title>
<polygon fill="none" stroke="red" points="380,-232 380,-309.25 450,-309.25 450,-232 380,-232"/>
<text text-anchor="middle" x="415" y="-291.95" font-family="Times,serif" font-size="14.00">Rack2</text>
</g>
<g id="clust8" class="cluster">
<title>cluster_Rack3W</title>
<polygon fill="none" stroke="red" points="302,-232 302,-309.25 372,-309.25 372,-232 302,-232"/>
<text text-anchor="middle" x="337" y="-291.95" font-family="Times,serif" font-size="14.00">Rack3</text>
</g>
<!-- W1 -->
<g id="node1" class="node">
<title>W1</title>
<polygon fill="yellow" stroke="yellow" points="266,-276 208,-276 208,-240 266,-240 266,-276"/>
<text text-anchor="middle" x="237" y="-253.32" font-family="Times,serif" font-size="14.00">Warm</text>
</g>
<!-- C1 -->
<g id="node2" class="node">
<title>C1</title>
<polygon fill="lightblue" stroke="lightblue" points="264,-204 210,-204 210,-168 264,-168 264,-204"/>
<text text-anchor="middle" x="237" y="-181.32" font-family="Times,serif" font-size="14.00">Cold</text>
</g>
<!-- W1&#45;&gt;C1 -->
<g id="edge1" class="edge">
<title>W1&#45;&gt;C1</title>
<path fill="none" stroke="black" d="M237,-239.7C237,-232.41 237,-223.73 237,-215.54"/>
<polygon fill="black" stroke="black" points="240.5,-215.62 237,-205.62 233.5,-215.62 240.5,-215.62"/>
</g>
<!-- F1 -->
<g id="node3" class="node">
<title>F1</title>
<polygon fill="lightgrey" stroke="lightgrey" points="269.75,-132 204.25,-132 204.25,-96 269.75,-96 269.75,-132"/>
<text text-anchor="middle" x="237" y="-109.33" font-family="Times,serif" font-size="14.00">Frozen</text>
</g>
<!-- C1&#45;&gt;F1 -->
<g id="edge2" class="edge">
<title>C1&#45;&gt;F1</title>
<path fill="none" stroke="black" d="M237,-167.7C237,-160.41 237,-151.73 237,-143.54"/>
<polygon fill="black" stroke="black" points="240.5,-143.62 237,-133.62 233.5,-143.62 240.5,-143.62"/>
</g>
<!-- H1W -->
<g id="node4" class="node">
<title>H1W</title>
<polygon fill="red" stroke="red" points="264,-60 210,-60 210,-24 264,-24 264,-60"/>
<text text-anchor="middle" x="237" y="-37.33" font-family="Times,serif" font-size="14.00">Hot</text>
</g>
<!-- F1&#45;&gt;H1W -->
<g id="edge3" class="edge">
<title>F1&#45;&gt;H1W</title>
<path fill="none" stroke="black" d="M237,-95.7C237,-88.41 237,-79.73 237,-71.54"/>
<polygon fill="black" stroke="black" points="240.5,-71.62 237,-61.62 233.5,-71.62 240.5,-71.62"/>
</g>
<!-- W2 -->
<g id="node5" class="node">
<title>W2</title>
<polygon fill="yellow" stroke="yellow" points="176,-276 118,-276 118,-240 176,-240 176,-276"/>
<text text-anchor="middle" x="147" y="-253.32" font-family="Times,serif" font-size="14.00">Warm</text>
</g>
<!-- C2 -->
<g id="node6" class="node">
<title>C2</title>
<polygon fill="lightblue" stroke="lightblue" points="174,-204 120,-204 120,-168 174,-168 174,-204"/>
<text text-anchor="middle" x="147" y="-181.32" font-family="Times,serif" font-size="14.00">Cold</text>
</g>
<!-- W2&#45;&gt;C2 -->
<g id="edge4" class="edge">
<title>W2&#45;&gt;C2</title>
<path fill="none" stroke="black" d="M147,-239.7C147,-232.41 147,-223.73 147,-215.54"/>
<polygon fill="black" stroke="black" points="150.5,-215.62 147,-205.62 143.5,-215.62 150.5,-215.62"/>
</g>
<!-- F2 -->
<g id="node7" class="node">
<title>F2</title>
<polygon fill="lightgrey" stroke="lightgrey" points="179.75,-132 114.25,-132 114.25,-96 179.75,-96 179.75,-132"/>
<text text-anchor="middle" x="147" y="-109.33" font-family="Times,serif" font-size="14.00">Frozen</text>
</g>
<!-- C2&#45;&gt;F2 -->
<g id="edge5" class="edge">
<title>C2&#45;&gt;F2</title>
<path fill="none" stroke="black" d="M147,-167.7C147,-160.41 147,-151.73 147,-143.54"/>
<polygon fill="black" stroke="black" points="150.5,-143.62 147,-133.62 143.5,-143.62 150.5,-143.62"/>
</g>
<!-- H2W -->
<g id="node8" class="node">
<title>H2W</title>
<polygon fill="red" stroke="red" points="174,-60 120,-60 120,-24 174,-24 174,-60"/>
<text text-anchor="middle" x="147" y="-37.33" font-family="Times,serif" font-size="14.00">Hot</text>
</g>
<!-- F2&#45;&gt;H2W -->
<g id="edge6" class="edge">
<title>F2&#45;&gt;H2W</title>
<path fill="none" stroke="black" d="M147,-95.7C147,-88.41 147,-79.73 147,-71.54"/>
<polygon fill="black" stroke="black" points="150.5,-71.62 147,-61.62 143.5,-71.62 150.5,-71.62"/>
</g>
<!-- W3 -->
<g id="node9" class="node">
<title>W3</title>
<polygon fill="yellow" stroke="yellow" points="86,-276 28,-276 28,-240 86,-240 86,-276"/>
<text text-anchor="middle" x="57" y="-253.32" font-family="Times,serif" font-size="14.00">Warm</text>
</g>
<!-- C3 -->
<g id="node10" class="node">
<title>C3</title>
<polygon fill="lightblue" stroke="lightblue" points="84,-204 30,-204 30,-168 84,-168 84,-204"/>
<text text-anchor="middle" x="57" y="-181.32" font-family="Times,serif" font-size="14.00">Cold</text>
</g>
<!-- W3&#45;&gt;C3 -->
<g id="edge7" class="edge">
<title>W3&#45;&gt;C3</title>
<path fill="none" stroke="black" d="M57,-239.7C57,-232.41 57,-223.73 57,-215.54"/>
<polygon fill="black" stroke="black" points="60.5,-215.62 57,-205.62 53.5,-215.62 60.5,-215.62"/>
</g>
<!-- F3 -->
<g id="node11" class="node">
<title>F3</title>
<polygon fill="lightgrey" stroke="lightgrey" points="89.75,-132 24.25,-132 24.25,-96 89.75,-96 89.75,-132"/>
<text text-anchor="middle" x="57" y="-109.33" font-family="Times,serif" font-size="14.00">Frozen</text>
</g>
<!-- C3&#45;&gt;F3 -->
<g id="edge8" class="edge">
<title>C3&#45;&gt;F3</title>
<path fill="none" stroke="black" d="M57,-167.7C57,-160.41 57,-151.73 57,-143.54"/>
<polygon fill="black" stroke="black" points="60.5,-143.62 57,-133.62 53.5,-143.62 60.5,-143.62"/>
</g>
<!-- H3W -->
<g id="node12" class="node">
<title>H3W</title>
<polygon fill="red" stroke="red" points="84,-60 30,-60 30,-24 84,-24 84,-60"/>
<text text-anchor="middle" x="57" y="-37.33" font-family="Times,serif" font-size="14.00">Hot</text>
</g>
<!-- F3&#45;&gt;H3W -->
<g id="edge9" class="edge">
<title>F3&#45;&gt;H3W</title>
<path fill="none" stroke="black" d="M57,-95.7C57,-88.41 57,-79.73 57,-71.54"/>
<polygon fill="black" stroke="black" points="60.5,-71.62 57,-61.62 53.5,-71.62 60.5,-71.62"/>
</g>
<!-- H1 -->
<g id="node13" class="node">
<title>H1</title>
<polygon fill="red" stroke="red" points="520,-276 466,-276 466,-240 520,-240 520,-276"/>
<text text-anchor="middle" x="493" y="-253.32" font-family="Times,serif" font-size="14.00">Hot</text>
</g>
<!-- H2 -->
<g id="node14" class="node">
<title>H2</title>
<polygon fill="red" stroke="red" points="442,-276 388,-276 388,-240 442,-240 442,-276"/>
<text text-anchor="middle" x="415" y="-253.32" font-family="Times,serif" font-size="14.00">Hot</text>
</g>
<!-- H3 -->
<g id="node15" class="node">
<title>H3</title>
<polygon fill="red" stroke="red" points="364,-276 310,-276 310,-240 364,-240 364,-276"/>
<text text-anchor="middle" x="337" y="-253.32" font-family="Times,serif" font-size="14.00">Hot</text>
</g>
</g>
</svg>
